Coordinates
version=1
nRows=5
nColumns=40
inDegrees=yes

Units are S.I. units (second, meters, Newtons, ...)
Angles are in degrees.

endheader
time	pelvis_tilt	pelvis_list	pelvis_rotation	pelvis_tx	pelvis_ty	pelvis_tz	hip_flexion_r	hip_adduction_r	hip_rotation_r	knee_angle_r	knee_angle_r_beta	ankle_angle_r	subtalar_angle_r	mtp_angle_r	hip_flexion_l	hip_adduction_l	hip_rotation_l	knee_angle_l	knee_angle_l_beta	ankle_angle_l	subtalar_angle_l	mtp_angle_l	lumbar_extension	lumbar_bending	lumbar_rotation	arm_flex_r	arm_add_r	arm_rot_r	elbow_flex_r	pro_sup_r	wrist_flex_r	wrist_dev_r	arm_flex_l	arm_add_l	arm_rot_l	elbow_flex_l	pro_sup_l	wrist_flex_l	wrist_dev_l
     38.37250000	     -6.63755062	     -6.12881688	     -1.87896286	      1.07338867	      0.92985307	      0.41267244	     40.46955890	     -3.24232245	     -5.18792658	     63.54917859	     63.54917859	      5.41605510	    -18.29242067	      7.65497937	     14.64021412	     -6.94321266	     -3.81651650	     22.32530152	     22.32530152	     16.03789628	    -12.47815071	      2.70344860	    -11.78521171	      5.48483613	      3.93774376	     18.60706570	    -13.03220833	      6.52497128	     40.44397216	     46.31750854	      0.00000000	      0.00000000	     15.03906967	    -15.68618328	      0.47771014	     61.32720150	     46.52675341	      0.00000000	      0.00000000
     38.38385714	     -6.61792945	     -6.17673644	     -2.04072609	      1.07227927	      0.92987658	      0.41278107	     41.05628030	     -3.07548444	     -5.32701055	     61.44769643	     61.44769643	      5.37164758	    -18.00730470	      7.55820041	     13.86169343	     -6.99404693	     -4.00373023	     21.89723892	     21.89723892	     16.32300505	    -12.35806492	      2.64013196	    -11.97399606	      5.66896794	      4.30479923	     16.87455114	    -14.00207323	      6.42012557	     38.43216589	     46.38079746	      0.00000000	      0.00000000	     16.72461975	    -15.73326565	      0.17954401	     63.01647835	     46.59491978	      0.00000000	      0.00000000
     38.39521429	     -6.74165574	     -6.03271784	     -2.13445960	      1.07105992	      0.92946815	      0.41288168	     41.70033480	     -3.10361568	     -5.38031441	     59.16290883	     59.16290883	      5.51413161	    -17.55252655	      7.64407493	     13.44583945	     -6.85072865	     -4.17067822	     21.80873049	     21.80873049	     16.56912547	    -12.30581231	      2.51862402	    -11.94748624	      5.67324006	      3.68513825	     15.45992672	    -14.52438926	      6.36832286	     37.51747617	     46.40717421	      0.00000000	      0.00000000	     18.03153253	    -16.49278975	     -0.12819132	     63.73137651	     46.63892878	      0.00000000	      0.00000000
     38.40657143	     -6.64929627	     -6.16384460	     -2.29553763	      1.07034724	      0.92954472	      0.41324662	     41.80200212	     -2.86060229	     -5.67620497	     56.44199800	     56.44199800	      5.28792905	    -17.06747036	      6.83445546	     12.41744039	     -7.01936644	     -4.51130904	     21.12256879	     21.12256879	     16.90404613	    -11.85926733	      2.29810635	    -12.23357471	      5.88890550	      4.88144217	     13.71761740	    -15.58615529	      6.10588458	     33.72301506	     46.55074130	      0.00000000	      0.00000000	     19.77036123	    -16.18276652	      0.28345774	     66.88046519	     46.68243919	      0.00000000	      0.00000000
     38.41792857	     -6.77863323	     -6.13077777	     -2.33103851	      1.06954618	      0.92911670	      0.41355790	     41.88965433	     -2.83670825	     -6.01207685	     53.28527684	     53.28527684	      4.18536970	    -16.80957569	      3.20651637	     11.80245990	     -7.01677980	     -4.77229529	     20.67573539	     20.67573539	     17.01348547	    -11.47924599	      1.63486977	    -12.16351306	      5.99382457	      3.92561524	     14.07983308	    -15.04405077	      4.28697307	     27.85648774	     46.87160454	      0.00000000	      0.00000000	     19.99161118	    -17.91449541	      1.27364751	     70.26304115	     46.74127330	      0.00000000	      0.00000000
